<?xml version="1.0" encoding="UTF-8" standalone="no"?>
<!DOCTYPE svg PUBLIC "-//W3C//DTD SVG 1.1//EN" "http://www.w3.org/Graphics/SVG/1.1/DTD/svg11.dtd">
<svg xmlns:xlink="http://www.w3.org/1999/xlink" height="95px" version="1.1" viewBox="0 0 391 95" width="391px" x="0px" y="0px" xmlns="http://www.w3.org/2000/svg">
  <g transform="translate(166 18)">
    <rect height="73" style="fill:rgb(128,255,133);stroke:none;" width="74" x="0" y="0"/>
    <rect height="73" style="fill:none;stroke:rgb(0,0,0);stroke-width:0.25;stroke-miterlimit:10;stroke-linecap:square;" width="74" x="0" y="0"/>
    <text style="fill:rgb(0,0,0);stroke:none;font-family:&quot;FreeMono&quot;;font-size:11px;font-weight:bold;" x="-4" y="-5">ExampleComp</text>
    <text style="fill:rgb(0,0,0);stroke:none;font-size:10px;font-weight:bold;" x="1" y="12">io_a</text>
    <text style="fill:rgb(0,0,0);stroke:none;font-size:10px;font-weight:bold;" x="1" y="26">io_b</text>
    <text style="fill:rgb(0,0,0);stroke:none;font-size:10px;font-weight:bold;" x="1" y="40">io_c</text>
    <text style="fill:rgb(0,0,0);stroke:none;font-size:10px;font-weight:bold;" x="1" y="54">clk</text>
    <text style="fill:rgb(0,0,0);stroke:none;font-size:10px;font-weight:bold;" x="1" y="68">reset</text>
    <text style="fill:rgb(0,0,0);stroke:none;font-size:10px;font-weight:bold;" x="51" y="12">io_d</text>
    <text style="fill:rgb(0,0,0);stroke:none;font-size:10px;font-weight:bold;" x="54" y="26">io_f</text>
    <text style="fill:rgb(0,0,0);stroke:none;font-size:10px;font-weight:bold;" x="-140" y="12">signed(3 downto 0)</text>
    <text style="fill:rgb(0,0,0);stroke:none;font-size:10px;font-weight:bold;" x="-140" y="26">signed(3 downto 0)</text>
    <text style="fill:rgb(0,0,0);stroke:none;font-size:10px;font-weight:bold;" x="-162" y="40">out signed(3 downto 0)</text>
    <text style="fill:rgb(0,0,0);stroke:none;font-size:10px;font-weight:bold;" x="-80" y="54">std_logic</text>
    <text style="fill:rgb(0,0,0);stroke:none;font-size:10px;font-weight:bold;" x="-80" y="68">std_logic</text>
    <text style="fill:rgb(0,0,0);stroke:none;font-size:10px;font-weight:bold;" x="105" y="12">signed(31 downto 0)</text>
    <text style="fill:rgb(0,0,0);stroke:none;font-size:10px;font-weight:bold;" x="105" y="26">std_logic</text>
    <line style="fill:none;stroke:rgb(0,0,0);stroke-miterlimit:10;stroke-linecap:square;" x1="-30" x2="-3" y1="9" y2="9"/>
    <path d="M0,9 L-6.0,12 L-6.0,6 Z" style="fill:rgb(255,255,255);stroke:none;"/>
    <path d="M0,9 L-6.0,12 L-6.0,6 Z" style="fill:none;stroke:rgb(0,0,0);stroke-miterlimit:10;stroke-linecap:square;"/>
    <line style="fill:none;stroke:rgb(0,0,0);stroke-miterlimit:10;stroke-linecap:square;" x1="-30" x2="-3" y1="23" y2="23"/>
    <path d="M0,23 L-6.0,26 L-6.0,20 Z" style="fill:rgb(255,255,255);stroke:none;"/>
    <path d="M0,23 L-6.0,26 L-6.0,20 Z" style="fill:none;stroke:rgb(0,0,0);stroke-miterlimit:10;stroke-linecap:square;"/>
    <line style="fill:none;stroke:rgb(0,0,0);stroke-miterlimit:10;stroke-linecap:square;" x1="-30" x2="-3" y1="37" y2="37"/>
    <path d="M0,37 L-6.0,40 L-6.0,34 Z" style="fill:rgb(255,255,255);stroke:none;"/>
    <path d="M0,37 L-6.0,40 L-6.0,34 Z" style="fill:none;stroke:rgb(0,0,0);stroke-miterlimit:10;stroke-linecap:square;"/>
    <line style="fill:none;stroke:rgb(0,0,0);stroke-miterlimit:10;stroke-linecap:square;" x1="-30" x2="-3" y1="51" y2="51"/>
    <path d="M0,51 L-6.0,54 L-6.0,48 Z" style="fill:rgb(255,255,255);stroke:none;"/>
    <path d="M0,51 L-6.0,54 L-6.0,48 Z" style="fill:none;stroke:rgb(0,0,0);stroke-miterlimit:10;stroke-linecap:square;"/>
    <line style="fill:none;stroke:rgb(0,0,0);stroke-miterlimit:10;stroke-linecap:square;" x1="-30" x2="-3" y1="65" y2="65"/>
    <path d="M0,65 L-6.0,68 L-6.0,62 Z" style="fill:rgb(255,255,255);stroke:none;"/>
    <path d="M0,65 L-6.0,68 L-6.0,62 Z" style="fill:none;stroke:rgb(0,0,0);stroke-miterlimit:10;stroke-linecap:square;"/>
    <line style="fill:none;stroke:rgb(0,0,0);stroke-miterlimit:10;stroke-linecap:square;" x1="74" x2="101" y1="9" y2="9"/>
    <path d="M104,9 L98.0,12 L98.0,6 Z" style="fill:rgb(255,255,255);stroke:none;"/>
    <path d="M104,9 L98.0,12 L98.0,6 Z" style="fill:none;stroke:rgb(0,0,0);stroke-miterlimit:10;stroke-linecap:square;"/>
    <line style="fill:none;stroke:rgb(0,0,0);stroke-miterlimit:10;stroke-linecap:square;" x1="74" x2="101" y1="23" y2="23"/>
    <path d="M104,23 L98.0,26 L98.0,20 Z" style="fill:rgb(255,255,255);stroke:none;"/>
    <path d="M104,23 L98.0,26 L98.0,20 Z" style="fill:none;stroke:rgb(0,0,0);stroke-miterlimit:10;stroke-linecap:square;"/>
  </g>
</svg>
